<mxfile host="app.diagrams.net" modified="2020-07-06T16:26:16.690Z" agent="5.0 (Windows)" etag="DaE8qWLzdr2DpsUzLaYS" version="13.3.9" type="github">
  <diagram id="n1csDCfi8EnM-YTXpeLg" name="Page-1">
    <mxGraphModel dx="1480" dy="2028" grid="1" gridSize="10" guides="1" tooltips="1" connect="1" arrows="1" fold="1" page="1" pageScale="1" pageWidth="850" pageHeight="1100" math="0" shadow="0">
      <root>
        <mxCell id="0" />
        <mxCell id="1" parent="0" />
        <mxCell id="T52fhXwFiEbYfdr09F9V-1" value="" style="rounded=0;whiteSpace=wrap;html=1;" vertex="1" parent="1">
          <mxGeometry x="1040" y="50" width="340" height="220" as="geometry" />
        </mxCell>
        <mxCell id="T52fhXwFiEbYfdr09F9V-2" value="Bolt Inventory States" style="rounded=0;whiteSpace=wrap;html=1;" vertex="1" parent="1">
          <mxGeometry x="1040" y="50" width="340" height="30" as="geometry" />
        </mxCell>
        <mxCell id="T52fhXwFiEbYfdr09F9V-3" value="InventoryItems [&amp;nbsp; ] - Array ( int )" style="rounded=0;whiteSpace=wrap;html=1;align=left;" vertex="1" parent="1">
          <mxGeometry x="1040" y="80" width="340" height="30" as="geometry" />
        </mxCell>
        <mxCell id="T52fhXwFiEbYfdr09F9V-4" value="InventoryItemCount [&amp;nbsp; ] - Array ( int )" style="rounded=0;whiteSpace=wrap;html=1;align=left;" vertex="1" parent="1">
          <mxGeometry x="1040" y="110" width="340" height="30" as="geometry" />
        </mxCell>
        <mxCell id="T52fhXwFiEbYfdr09F9V-5" value="InventoryItemCapacity - Int" style="rounded=0;whiteSpace=wrap;html=1;align=left;" vertex="1" parent="1">
          <mxGeometry x="1040" y="140" width="340" height="30" as="geometry" />
        </mxCell>
        <mxCell id="T52fhXwFiEbYfdr09F9V-6" value="InventoryWeapons [ ] - Array ( int )" style="rounded=0;whiteSpace=wrap;html=1;align=left;" vertex="1" parent="1">
          <mxGeometry x="1040" y="170" width="340" height="30" as="geometry" />
        </mxCell>
        <mxCell id="T52fhXwFiEbYfdr09F9V-7" value="InventoryEquipment [ ] - Array ( int )" style="rounded=0;whiteSpace=wrap;html=1;align=left;" vertex="1" parent="1">
          <mxGeometry x="1040" y="200" width="340" height="30" as="geometry" />
        </mxCell>
        <mxCell id="T52fhXwFiEbYfdr09F9V-8" value="" style="rounded=0;whiteSpace=wrap;html=1;align=left;" vertex="1" parent="1">
          <mxGeometry x="1040" y="230" width="340" height="30" as="geometry" />
        </mxCell>
        <mxCell id="T52fhXwFiEbYfdr09F9V-9" value="" style="rounded=0;whiteSpace=wrap;html=1;" vertex="1" parent="1">
          <mxGeometry x="50" y="50" width="340" height="220" as="geometry" />
        </mxCell>
        <mxCell id="T52fhXwFiEbYfdr09F9V-10" value="Player Inventory" style="rounded=0;whiteSpace=wrap;html=1;" vertex="1" parent="1">
          <mxGeometry x="50" y="50" width="340" height="30" as="geometry" />
        </mxCell>
        <mxCell id="T52fhXwFiEbYfdr09F9V-11" value="AddItem(" style="rounded=0;whiteSpace=wrap;html=1;align=left;verticalAlign=middle;" vertex="1" parent="1">
          <mxGeometry x="50" y="80" width="340" height="30" as="geometry" />
        </mxCell>
        <mxCell id="T52fhXwFiEbYfdr09F9V-12" value="DropItem(" style="rounded=0;whiteSpace=wrap;html=1;align=left;verticalAlign=middle;" vertex="1" parent="1">
          <mxGeometry x="50" y="110" width="340" height="30" as="geometry" />
        </mxCell>
        <mxCell id="T52fhXwFiEbYfdr09F9V-13" value="UseItem(" style="rounded=0;whiteSpace=wrap;html=1;align=left;verticalAlign=middle;" vertex="1" parent="1">
          <mxGeometry x="50" y="140" width="340" height="30" as="geometry" />
        </mxCell>
        <mxCell id="T52fhXwFiEbYfdr09F9V-14" value="EquipItem(" style="rounded=0;whiteSpace=wrap;html=1;align=left;verticalAlign=middle;" vertex="1" parent="1">
          <mxGeometry x="50" y="170" width="340" height="30" as="geometry" />
        </mxCell>
        <mxCell id="T52fhXwFiEbYfdr09F9V-15" value="Saving - InventoryState()" style="rounded=0;whiteSpace=wrap;html=1;align=left;verticalAlign=middle;" vertex="1" parent="1">
          <mxGeometry x="50" y="200" width="340" height="30" as="geometry" />
        </mxCell>
        <mxCell id="T52fhXwFiEbYfdr09F9V-16" value="CallBacks" style="rounded=0;whiteSpace=wrap;html=1;align=left;verticalAlign=middle;" vertex="1" parent="1">
          <mxGeometry x="50" y="230" width="340" height="30" as="geometry" />
        </mxCell>
        <mxCell id="T52fhXwFiEbYfdr09F9V-17" value="" style="rounded=0;whiteSpace=wrap;html=1;" vertex="1" parent="1">
          <mxGeometry x="50" y="400" width="340" height="220" as="geometry" />
        </mxCell>
        <mxCell id="T52fhXwFiEbYfdr09F9V-18" value="InventoryUI" style="rounded=0;whiteSpace=wrap;html=1;" vertex="1" parent="1">
          <mxGeometry x="50" y="400" width="340" height="30" as="geometry" />
        </mxCell>
        <mxCell id="T52fhXwFiEbYfdr09F9V-19" value="" style="rounded=0;whiteSpace=wrap;html=1;" vertex="1" parent="1">
          <mxGeometry x="50" y="430" width="340" height="30" as="geometry" />
        </mxCell>
        <mxCell id="T52fhXwFiEbYfdr09F9V-20" value="" style="rounded=0;whiteSpace=wrap;html=1;" vertex="1" parent="1">
          <mxGeometry x="50" y="460" width="340" height="30" as="geometry" />
        </mxCell>
        <mxCell id="T52fhXwFiEbYfdr09F9V-21" value="" style="rounded=0;whiteSpace=wrap;html=1;" vertex="1" parent="1">
          <mxGeometry x="50" y="490" width="340" height="30" as="geometry" />
        </mxCell>
        <mxCell id="T52fhXwFiEbYfdr09F9V-22" value="" style="rounded=0;whiteSpace=wrap;html=1;" vertex="1" parent="1">
          <mxGeometry x="50" y="520" width="340" height="30" as="geometry" />
        </mxCell>
        <mxCell id="T52fhXwFiEbYfdr09F9V-23" value="" style="rounded=0;whiteSpace=wrap;html=1;" vertex="1" parent="1">
          <mxGeometry x="50" y="550" width="340" height="30" as="geometry" />
        </mxCell>
        <mxCell id="T52fhXwFiEbYfdr09F9V-24" value="" style="rounded=0;whiteSpace=wrap;html=1;" vertex="1" parent="1">
          <mxGeometry x="50" y="580" width="340" height="30" as="geometry" />
        </mxCell>
        <mxCell id="T52fhXwFiEbYfdr09F9V-25" value="" style="rounded=0;whiteSpace=wrap;html=1;" vertex="1" parent="1">
          <mxGeometry x="560" y="240" width="400" height="370" as="geometry" />
        </mxCell>
        <mxCell id="T52fhXwFiEbYfdr09F9V-26" value="Bolt Inventory Manager Script" style="rounded=0;whiteSpace=wrap;html=1;" vertex="1" parent="1">
          <mxGeometry x="560" y="240" width="400" height="30" as="geometry" />
        </mxCell>
        <mxCell id="T52fhXwFiEbYfdr09F9V-27" value="bool RequestPickupItem(BaseItem3D, mobile, Entity) " style="rounded=0;whiteSpace=wrap;html=1;align=left;" vertex="1" parent="1">
          <mxGeometry x="560" y="270" width="400" height="30" as="geometry" />
        </mxCell>
        <mxCell id="T52fhXwFiEbYfdr09F9V-28" value="bool RequestEquipItem( mobile, BaseItem3D, index)" style="rounded=0;whiteSpace=wrap;html=1;align=left;" vertex="1" parent="1">
          <mxGeometry x="560" y="300" width="400" height="30" as="geometry" />
        </mxCell>
        <mxCell id="T52fhXwFiEbYfdr09F9V-29" value="bool RequestEquipWeapon( mobile, BaseItem3D, index)" style="rounded=0;whiteSpace=wrap;html=1;align=left;" vertex="1" parent="1">
          <mxGeometry x="560" y="330" width="400" height="30" as="geometry" />
        </mxCell>
        <mxCell id="T52fhXwFiEbYfdr09F9V-30" value="bool RequestDropItem( mobile, BaseItem3D, index)" style="rounded=0;whiteSpace=wrap;html=1;align=left;" vertex="1" parent="1">
          <mxGeometry x="560" y="360" width="400" height="30" as="geometry" />
        </mxCell>
        <mxCell id="T52fhXwFiEbYfdr09F9V-31" value="bool RequestUseConsumeable( mobile, BaseItem3D, index)" style="rounded=0;whiteSpace=wrap;html=1;align=left;" vertex="1" parent="1">
          <mxGeometry x="560" y="420" width="400" height="30" as="geometry" />
        </mxCell>
        <mxCell id="T52fhXwFiEbYfdr09F9V-32" value="bool RequestAddIventoryItem ( mobile, BaseItem3D, amt, obj )" style="rounded=0;whiteSpace=wrap;html=1;align=left;" vertex="1" parent="1">
          <mxGeometry x="560" y="390" width="400" height="30" as="geometry" />
        </mxCell>
        <mxCell id="T52fhXwFiEbYfdr09F9V-33" value="" style="rounded=0;whiteSpace=wrap;html=1;" vertex="1" parent="1">
          <mxGeometry x="1090" y="720" width="340" height="220" as="geometry" />
        </mxCell>
        <mxCell id="T52fhXwFiEbYfdr09F9V-34" value="ItemDatabase" style="rounded=0;whiteSpace=wrap;html=1;" vertex="1" parent="1">
          <mxGeometry x="1090" y="720" width="340" height="30" as="geometry" />
        </mxCell>
        <mxCell id="T52fhXwFiEbYfdr09F9V-35" value="" style="rounded=0;whiteSpace=wrap;html=1;" vertex="1" parent="1">
          <mxGeometry x="1090" y="750" width="340" height="30" as="geometry" />
        </mxCell>
        <mxCell id="T52fhXwFiEbYfdr09F9V-36" value="" style="rounded=0;whiteSpace=wrap;html=1;" vertex="1" parent="1">
          <mxGeometry x="1090" y="780" width="340" height="30" as="geometry" />
        </mxCell>
        <mxCell id="T52fhXwFiEbYfdr09F9V-37" value="" style="rounded=0;whiteSpace=wrap;html=1;" vertex="1" parent="1">
          <mxGeometry x="1090" y="810" width="340" height="30" as="geometry" />
        </mxCell>
        <mxCell id="T52fhXwFiEbYfdr09F9V-38" value="" style="rounded=0;whiteSpace=wrap;html=1;" vertex="1" parent="1">
          <mxGeometry x="1090" y="840" width="340" height="30" as="geometry" />
        </mxCell>
        <mxCell id="T52fhXwFiEbYfdr09F9V-39" value="" style="rounded=0;whiteSpace=wrap;html=1;" vertex="1" parent="1">
          <mxGeometry x="1090" y="870" width="340" height="30" as="geometry" />
        </mxCell>
        <mxCell id="T52fhXwFiEbYfdr09F9V-40" value="" style="rounded=0;whiteSpace=wrap;html=1;" vertex="1" parent="1">
          <mxGeometry x="1090" y="900" width="340" height="30" as="geometry" />
        </mxCell>
        <mxCell id="T52fhXwFiEbYfdr09F9V-41" value="" style="rounded=0;whiteSpace=wrap;html=1;" vertex="1" parent="1">
          <mxGeometry x="560" y="720" width="340" height="220" as="geometry" />
        </mxCell>
        <mxCell id="T52fhXwFiEbYfdr09F9V-42" value="ItemScriptRepository" style="rounded=0;whiteSpace=wrap;html=1;" vertex="1" parent="1">
          <mxGeometry x="560" y="720" width="340" height="30" as="geometry" />
        </mxCell>
        <mxCell id="T52fhXwFiEbYfdr09F9V-43" value="" style="rounded=0;whiteSpace=wrap;html=1;" vertex="1" parent="1">
          <mxGeometry x="560" y="750" width="340" height="30" as="geometry" />
        </mxCell>
        <mxCell id="T52fhXwFiEbYfdr09F9V-44" value="" style="rounded=0;whiteSpace=wrap;html=1;" vertex="1" parent="1">
          <mxGeometry x="560" y="780" width="340" height="30" as="geometry" />
        </mxCell>
        <mxCell id="T52fhXwFiEbYfdr09F9V-45" value="" style="rounded=0;whiteSpace=wrap;html=1;" vertex="1" parent="1">
          <mxGeometry x="560" y="810" width="340" height="30" as="geometry" />
        </mxCell>
        <mxCell id="T52fhXwFiEbYfdr09F9V-46" value="" style="rounded=0;whiteSpace=wrap;html=1;" vertex="1" parent="1">
          <mxGeometry x="560" y="840" width="340" height="30" as="geometry" />
        </mxCell>
        <mxCell id="T52fhXwFiEbYfdr09F9V-47" value="" style="rounded=0;whiteSpace=wrap;html=1;" vertex="1" parent="1">
          <mxGeometry x="560" y="870" width="340" height="30" as="geometry" />
        </mxCell>
        <mxCell id="T52fhXwFiEbYfdr09F9V-48" value="" style="rounded=0;whiteSpace=wrap;html=1;" vertex="1" parent="1">
          <mxGeometry x="560" y="900" width="340" height="30" as="geometry" />
        </mxCell>
        <mxCell id="T52fhXwFiEbYfdr09F9V-49" value="" style="rounded=0;whiteSpace=wrap;html=1;" vertex="1" parent="1">
          <mxGeometry x="560" y="-240" width="340" height="220" as="geometry" />
        </mxCell>
        <mxCell id="T52fhXwFiEbYfdr09F9V-50" value="PlayInputScript3D" style="rounded=0;whiteSpace=wrap;html=1;" vertex="1" parent="1">
          <mxGeometry x="560" y="-240" width="340" height="30" as="geometry" />
        </mxCell>
        <mxCell id="T52fhXwFiEbYfdr09F9V-51" value="RequestItemPickup(" style="rounded=0;whiteSpace=wrap;html=1;align=left;verticalAlign=middle;" vertex="1" parent="1">
          <mxGeometry x="560" y="-210" width="340" height="30" as="geometry" />
        </mxCell>
        <mxCell id="T52fhXwFiEbYfdr09F9V-52" value="RequestItemConsume (" style="rounded=0;whiteSpace=wrap;html=1;align=left;verticalAlign=middle;" vertex="1" parent="1">
          <mxGeometry x="560" y="-180" width="340" height="30" as="geometry" />
        </mxCell>
        <mxCell id="T52fhXwFiEbYfdr09F9V-53" value="" style="rounded=0;whiteSpace=wrap;html=1;align=left;verticalAlign=middle;" vertex="1" parent="1">
          <mxGeometry x="560" y="-150" width="340" height="30" as="geometry" />
        </mxCell>
        <mxCell id="T52fhXwFiEbYfdr09F9V-54" value="" style="rounded=0;whiteSpace=wrap;html=1;align=left;verticalAlign=middle;" vertex="1" parent="1">
          <mxGeometry x="560" y="-120" width="340" height="30" as="geometry" />
        </mxCell>
        <mxCell id="T52fhXwFiEbYfdr09F9V-55" value="" style="rounded=0;whiteSpace=wrap;html=1;align=left;verticalAlign=middle;" vertex="1" parent="1">
          <mxGeometry x="560" y="-90" width="340" height="30" as="geometry" />
        </mxCell>
        <mxCell id="T52fhXwFiEbYfdr09F9V-56" value="" style="rounded=0;whiteSpace=wrap;html=1;align=left;verticalAlign=middle;" vertex="1" parent="1">
          <mxGeometry x="560" y="-60" width="340" height="30" as="geometry" />
        </mxCell>
        <mxCell id="T52fhXwFiEbYfdr09F9V-57" value="" style="rounded=0;whiteSpace=wrap;html=1;align=left;" vertex="1" parent="1">
          <mxGeometry x="560" y="450" width="400" height="30" as="geometry" />
        </mxCell>
        <mxCell id="T52fhXwFiEbYfdr09F9V-58" value="" style="rounded=0;whiteSpace=wrap;html=1;align=left;" vertex="1" parent="1">
          <mxGeometry x="560" y="480" width="400" height="30" as="geometry" />
        </mxCell>
        <mxCell id="T52fhXwFiEbYfdr09F9V-59" value="bool isItemExisting ( mobile, item )" style="rounded=0;whiteSpace=wrap;html=1;align=left;" vertex="1" parent="1">
          <mxGeometry x="560" y="510" width="400" height="30" as="geometry" />
        </mxCell>
        <mxCell id="T52fhXwFiEbYfdr09F9V-60" value="bool IsInventoryCapacityFull ( mobile )" style="rounded=0;whiteSpace=wrap;html=1;align=left;" vertex="1" parent="1">
          <mxGeometry x="560" y="540" width="400" height="30" as="geometry" />
        </mxCell>
        <mxCell id="T52fhXwFiEbYfdr09F9V-61" value="SetGameManager( GameManagerScript)" style="rounded=0;whiteSpace=wrap;html=1;align=left;" vertex="1" parent="1">
          <mxGeometry x="560" y="570" width="400" height="30" as="geometry" />
        </mxCell>
      </root>
    </mxGraphModel>
  </diagram>
</mxfile>
